<svg width="70" height="68" viewBox="0 0 70 68" fill="none" xmlns="http://www.w3.org/2000/svg">
<g clip-path="url(#clip0_1_344)">
<path d="M68.4614 32.5152C68.4576 14.5539 53.4656 -0.00363092 34.9754 6.79322e-07C16.4858 0.00363228 1.50017 14.5679 1.50391 32.5292C1.50711 46.6774 10.9252 59.2001 24.7995 63.5036C24.9319 63.544 25.0697 63.5648 25.2081 63.5643C25.4719 63.5638 25.7304 63.4953 25.9573 63.3651C26.2527 63.1954 26.4732 62.9256 26.5768 62.6076L35.0315 36.5764C37.3429 36.5649 39.2068 34.7351 39.1945 32.4903C39.1827 30.2449 37.2997 28.4343 34.9883 28.4457C34.3666 28.4483 33.753 28.5874 33.1944 28.8525L22.0251 18.0008C21.4707 17.4809 20.5879 17.496 20.0528 18.034C19.5305 18.5595 19.5305 19.3917 20.0528 19.9172L31.2162 30.7741C30.3596 32.4727 30.8493 34.5229 32.3895 35.6809L24.3338 60.4857C8.41354 54.7888 0.261689 37.6337 6.12618 22.1683C11.9907 6.70288 29.6503 -1.21606 45.5706 4.48087C61.4909 10.1778 69.6427 27.3334 63.7782 42.7983C60.913 50.3541 55.0261 56.4645 47.4548 59.7418L46.5842 55.7589C46.4251 55.0269 45.6844 54.559 44.9308 54.7141C44.6932 54.7634 44.4726 54.8718 44.291 55.029L35.8978 62.3083C35.322 62.8058 35.2708 63.6623 35.7835 64.2216C35.9501 64.4032 36.1637 64.5381 36.403 64.6122L47.1188 67.9346C47.8521 68.1634 48.6377 67.7717 48.8732 67.0589C48.948 66.8337 48.9603 66.5941 48.9101 66.3627L48.0545 62.4546C60.4452 57.3802 68.4902 45.5775 68.4614 32.5152V32.5152ZM34.9829 31.1601C35.753 31.1601 36.3779 31.7671 36.3779 32.5152C36.3779 33.2638 35.753 33.8703 34.9829 33.8703C34.2123 33.8703 33.588 33.2638 33.588 32.5152C33.588 31.7671 34.2123 31.1601 34.9829 31.1601ZM39.5774 62.7461L44.3551 58.6061L45.6737 64.6418L39.5774 62.7461Z" fill="#212121"/>
<path d="M33.5879 6.76825V9.47845C33.5879 10.2271 34.2122 10.8336 34.9828 10.8336C35.753 10.8336 36.3778 10.2271 36.3778 9.47845V6.76825C36.3778 6.02014 35.753 5.41315 34.9828 5.41315C34.2122 5.41315 33.5879 6.02014 33.5879 6.76825Z" fill="#2196F3"/>
<path d="M8.4787 31.1601C7.70805 31.1601 7.08374 31.7671 7.08374 32.5152C7.08374 33.2638 7.70805 33.8703 8.4787 33.8703H11.2686C12.0393 33.8703 12.6636 33.2638 12.6636 32.5152C12.6636 31.7671 12.0393 31.1601 11.2686 31.1601H8.4787Z" fill="#2196F3"/>
<path d="M61.4866 33.8703C62.2572 33.8703 62.8815 33.2638 62.8815 32.5152C62.8815 31.7671 62.2572 31.1601 61.4866 31.1601H58.6967C57.9265 31.1601 57.3017 31.7671 57.3017 32.5152C57.3017 33.2638 57.9265 33.8703 58.6967 33.8703H61.4866Z" fill="#2196F3"/>
</g>
<defs>
<clipPath id="clip0_1_344">
<rect width="70" height="68" fill="white"/>
</clipPath>
</defs>
</svg>
